<svg width="1200" height="825" viewBox="0 0 1200 825" fill="none" xmlns="http://www.w3.org/2000/svg">
  <rect width="1200" height="825" fill="#FFF8EF"/>
  <rect x="68" y="66" width="1064" height="693" rx="28" fill="#13202B"/>
  <rect x="112" y="110" width="976" height="92" rx="20" fill="#213142"/>
  <rect x="150" y="144" width="230" height="22" rx="11" fill="#F6F8FB"/>
  <rect x="848" y="136" width="192" height="38" rx="19" fill="#D8A31A"/>
  <rect x="112" y="246" width="290" height="204" rx="22" fill="#F6F8FB" fill-opacity=".10"/>
  <rect x="454" y="246" width="290" height="204" rx="22" fill="#F6F8FB" fill-opacity=".10"/>
  <rect x="798" y="246" width="290" height="204" rx="22" fill="#F6F8FB" fill-opacity=".10"/>
  <rect x="112" y="494" width="976" height="204" rx="22" fill="#F6F8FB" fill-opacity=".10"/>
  <rect x="156" y="384" width="42" height="28" rx="8" fill="#37B2A2"/>
  <rect x="222" y="332" width="42" height="80" rx="8" fill="#E86B5F"/>
  <rect x="288" y="292" width="42" height="120" rx="8" fill="#D8A31A"/>
  <path d="M512 384 C554 320 604 392 640 332 C664 292 694 290 710 276" stroke="#37B2A2" stroke-width="12" stroke-linecap="round"/>
  <circle cx="942" cy="348" r="74" stroke="#E86B5F" stroke-width="34"/>
  <path d="M942 274 A74 74 0 0 1 1014 365" stroke="#37B2A2" stroke-width="34" stroke-linecap="round"/>
  <rect x="158" y="552" width="840" height="18" rx="9" fill="#F6F8FB" fill-opacity=".65"/>
  <rect x="158" y="606" width="730" height="18" rx="9" fill="#F6F8FB" fill-opacity=".42"/>
  <rect x="158" y="660" width="486" height="18" rx="9" fill="#F6F8FB" fill-opacity=".42"/>
  <rect x="144" y="276" width="116" height="16" rx="8" fill="#F6F8FB" fill-opacity=".7"/>
  <rect x="486" y="276" width="116" height="16" rx="8" fill="#F6F8FB" fill-opacity=".7"/>
  <rect x="830" y="276" width="116" height="16" rx="8" fill="#F6F8FB" fill-opacity=".7"/>
</svg>
