<svg width="1200" height="825" viewBox="0 0 1200 825" fill="none" xmlns="http://www.w3.org/2000/svg">
  <rect width="1200" height="825" fill="#EEF5F3"/>
  <rect x="64" y="60" width="1072" height="705" rx="30" fill="#FDFEFE"/>
  <rect x="104" y="104" width="254" height="617" rx="22" fill="#10131A"/>
  <rect x="400" y="104" width="692" height="124" rx="22" fill="#11645A"/>
  <rect x="430" y="138" width="210" height="18" rx="9" fill="#D5FFF7" fill-opacity=".76"/>
  <rect x="430" y="174" width="330" height="24" rx="12" fill="white" fill-opacity=".92"/>
  <rect x="400" y="270" width="320" height="200" rx="22" fill="#F3F6FA"/>
  <rect x="772" y="270" width="320" height="200" rx="22" fill="#F3F6FA"/>
  <rect x="400" y="512" width="692" height="209" rx="22" fill="#F3F6FA"/>
  <circle cx="230" cy="210" r="64" fill="#E86B5F"/>
  <path d="M230 146 A64 64 0 1 1 180 314" stroke="#D8A31A" stroke-width="32"/>
  <rect x="154" y="340" width="152" height="16" rx="8" fill="#E7EDF5" fill-opacity=".7"/>
  <rect x="154" y="386" width="132" height="16" rx="8" fill="#E7EDF5" fill-opacity=".44"/>
  <rect x="154" y="426" width="164" height="16" rx="8" fill="#E7EDF5" fill-opacity=".44"/>
  <rect x="154" y="466" width="112" height="16" rx="8" fill="#E7EDF5" fill-opacity=".44"/>
  <rect x="450" y="402" width="36" height="38" rx="8" fill="#11645A"/>
  <rect x="508" y="360" width="36" height="80" rx="8" fill="#E86B5F"/>
  <rect x="566" y="320" width="36" height="120" rx="8" fill="#D8A31A"/>
  <rect x="624" y="376" width="36" height="64" rx="8" fill="#37B2A2"/>
  <path d="M830 405 C872 338 914 406 956 346 C988 302 1028 320 1050 292" stroke="#E86B5F" stroke-width="12" stroke-linecap="round"/>
  <path d="M452 650 L530 598 L608 624 L686 566 L764 598 L842 544 L1034 566" stroke="#11645A" stroke-width="12" stroke-linecap="round" stroke-linejoin="round"/>
  <rect x="430" y="300" width="120" height="14" rx="7" fill="#748397"/>
  <rect x="802" y="300" width="150" height="14" rx="7" fill="#748397"/>
  <rect x="430" y="546" width="184" height="14" rx="7" fill="#748397"/>
</svg>
